# xmcd CD database file
#
# Track frame offsets:
#	150
#	28788
#	65022
#	86529
#	115229
#	134896
#	163021
#	211438
#	227321
#
# Disc length: 3818 seconds
#
# Revision: 0
# Processed by: cddbd v1.5.2PL0 Copyright (c) Steve Scherf et al.
# Submitted via: CDex 1.51
#
DISCID=7d0ee809
DTITLE=L'Effet Vapeur - Je Pense Que
DYEAR=2002
DGENRE=Jazz
TTITLE0=Les Petits Bétains
TTITLE1=Turbocal
TTITLE2=Je Pense Que
TTITLE3=Quichotte
TTITLE4=L'Arsene
TTITLE5=Cochon Tige
TTITLE6=Bóitea á Tango
TTITLE7=Nomade Aubade
TTITLE8=Ose L'Os de Doux Motosse
EXTD=YEAR: 2002
EXTT0=
EXTT1=
EXTT2=
EXTT3=
EXTT4=
EXTT5=
EXTT6=
EXTT7=
EXTT8=
PLAYORDER=
